<?xml version="1.0" encoding="UTF-8" standalone="no"?>
<svg xmlns="http://www.w3.org/2000/svg" width="64" height="64" viewBox="0 0 87.418 82.937">
  <defs>
    <radialGradient id="a" cx="-14383" cy="-8078.4" r="38.471" gradientTransform="translate(14711 8339.9) scale(1.0283)" gradientUnits="userSpaceOnUse">
      <stop offset=".045" stop-color="#ffea00"/>
      <stop offset=".12" stop-color="#ffde00"/>
      <stop offset=".254" stop-color="#ffbf00"/>
      <stop offset=".429" stop-color="#ff8e00"/>
      <stop offset=".769" stop-color="#ff272d"/>
      <stop offset=".872" stop-color="#e0255a"/>
      <stop offset=".953" stop-color="#cc2477"/>
      <stop offset="1" stop-color="#c42482"/>
    </radialGradient>
    <radialGradient id="b" cx="-7529.7" cy="-7921.5" r="86.499" gradientTransform="matrix(.1806 -.98354 .84864 .15586 10689 -2540.8)" gradientUnits="userSpaceOnUse">
      <stop offset="0" stop-color="#00ccda"/>
      <stop offset=".22" stop-color="#0083ff"/>
      <stop offset=".261" stop-color="#007af9"/>
      <stop offset=".33" stop-color="#0060e8"/>
      <stop offset=".333" stop-color="#005fe7"/>
      <stop offset=".438" stop-color="#2639ad"/>
      <stop offset=".522" stop-color="#401e84"/>
      <stop offset=".566" stop-color="#4a1475"/>
    </radialGradient>
    <linearGradient id="c" x1="70.786" x2="6.447" y1="12.393" y2="74.468" gradientTransform="translate(1.3 -.001)" gradientUnits="userSpaceOnUse">
      <stop offset="0" stop-color="#000f43" stop-opacity=".4"/>
      <stop offset=".485" stop-color="#001962" stop-opacity=".173"/>
      <stop offset="1" stop-color="#002079" stop-opacity="0"/>
    </linearGradient>
    <radialGradient id="d" cx="-8260.9" cy="-6516.6" r="73.72" gradientTransform="translate(8523.8 6585.5) scale(1.0568)" gradientUnits="userSpaceOnUse">
      <stop offset=".129" stop-color="#ffea00"/>
      <stop offset=".186" stop-color="#ffde00"/>
      <stop offset=".247" stop-color="#ffbf00"/>
      <stop offset=".283" stop-color="#ffb200"/>
      <stop offset=".403" stop-color="#ff8e00"/>
      <stop offset=".467" stop-color="#ff7f00"/>
      <stop offset=".71" stop-color="#ff272d"/>
      <stop offset=".782" stop-color="#f92433"/>
      <stop offset=".86" stop-color="#e91c45"/>
      <stop offset=".935" stop-color="#cf0e62"/>
      <stop offset="1" stop-color="#b5007f"/>
    </radialGradient>
    <radialGradient id="e" cx="-8285.9" cy="-6772.6" r="80.685" gradientTransform="translate(8533.2 6726.9) scale(1.0573)" gradientUnits="userSpaceOnUse">
      <stop offset="0" stop-color="#960e18"/>
      <stop offset=".401" stop-color="#b11927" stop-opacity=".74"/>
      <stop offset=".817" stop-color="#db293d" stop-opacity=".343"/>
      <stop offset="1" stop-color="#e6334e" stop-opacity=".2"/>
    </radialGradient>
    <radialGradient id="f" cx="-8324.6" cy="-6415.2" r="43.502" gradientTransform="translate(8488.3 6577.2) scale(1.0495)" gradientUnits="userSpaceOnUse">
      <stop offset="0" stop-color="#fff44f"/>
      <stop offset=".203" stop-color="#ffe847"/>
      <stop offset=".499" stop-color="#ffc830"/>
      <stop offset=".852" stop-color="#ff980e"/>
      <stop offset="1" stop-color="#ff8b00"/>
    </radialGradient>
    <linearGradient id="g" x1="62.446" x2="15.982" y1="5.906" y2="45.185" gradientTransform="translate(1.3 -.001)" gradientUnits="userSpaceOnUse">
      <stop offset="0" stop-color="#fff44f" stop-opacity=".8"/>
      <stop offset=".094" stop-color="#fff44f" stop-opacity=".699"/>
      <stop offset=".752" stop-color="#fff44f" stop-opacity="0"/>
    </linearGradient>
    <linearGradient id="h" x1="49.453" x2="49.453" y1="-9.9" y2="43.867" gradientTransform="translate(1.3 -.001)" gradientUnits="userSpaceOnUse">
      <stop offset="0" stop-color="#3a8ee6"/>
      <stop offset=".241" stop-color="#5c79f0"/>
      <stop offset=".691" stop-color="#9059ff"/>
      <stop offset="1" stop-color="#c139e6"/>
    </linearGradient>
  </defs>
  <path fill="url(#a)" d="M82.5 42.2c0-1.9-.1-3.8-.4-5.6-1.2-8.9-5.4-16.8-11.7-22.7-1.2-1.1-2.5-2.1-3.8-3.1-.8-.6-1.6-1.2-2.5-1.7-.8-.5-1.7-1-2.5-1.4-1.7-.9-3.5-1.6-5.3-2.2-1.8-.6-3.7-1-5.6-1.3-1.9-.3-3.8-.4-5.7-.4-1.9 0-3.8.1-5.7.4-1.9.3-3.8.7-5.6 1.3-1.8.6-3.6 1.3-5.3 2.2-.9.4-1.7.9-2.5 1.4-.9.5-1.7 1.1-2.5 1.7-1.3 1-2.6 2-3.8 3.1-6.3 5.9-10.5 13.8-11.7 22.7-.3 1.9-.4 3.7-.4 5.6 0 1.9.1 3.8.4 5.6.3 1.9.7 3.7 1.3 5.5.6 1.8 1.3 3.6 2.2 5.2.9 1.7 1.9 3.3 3 4.8 1.1 1.5 2.3 3 3.6 4.3 1.3 1.3 2.7 2.5 4.2 3.6 1.5 1.1 3.1 2.1 4.8 3 1.7.9 3.4 1.6 5.2 2.2 1.8.6 3.6 1 5.5 1.3 1.9.3 3.7.4 5.6.4 1.9 0 3.8-.1 5.6-.4 1.9-.3 3.7-.7 5.5-1.3 1.8-.6 3.5-1.3 5.2-2.2 1.7-.9 3.3-1.9 4.8-3 1.5-1.1 2.9-2.3 4.2-3.6 1.3-1.3 2.5-2.7 3.6-4.3 1.1-1.5 2.1-3.1 3-4.8.9-1.7 1.6-3.4 2.2-5.2.6-1.8 1-3.6 1.3-5.5.3-1.8.4-3.7.4-5.6z"/>
  <path fill="url(#b)" d="M41.3 83c22.6 0 40.9-18.3 40.9-40.9S63.9 1.3 41.3 1.3.4 19.6.4 42.2s18.3 40.8 40.9 40.8z"/>
  <path fill="url(#c)" d="M41.3 83c22.6 0 40.9-18.3 40.9-40.9S63.9 1.3 41.3 1.3.4 19.6.4 42.2s18.3 40.8 40.9 40.8z"/>
  <path fill="url(#d)" d="M76.7 36.9c-.7-3.9-2.6-7.5-5.3-10.2-1.2-1.2-2.5-2.2-3.9-3-1.4-.8-2.9-1.4-4.5-1.8-1.6-.4-3.2-.6-4.8-.6-1.6 0-3.2.2-4.8.6-1.6.4-3.1 1-4.5 1.8-1.4.8-2.7 1.8-3.9 3-2.7 2.7-4.6 6.3-5.3 10.2-.7 3.9-.2 7.9 1.4 11.4 1.6 3.5 4.3 6.4 7.7 8.2 3.4 1.8 7.3 2.4 11.1 1.7 3.8-.7 7.3-2.7 9.9-5.5 2.6-2.9 4.3-6.6 4.7-10.5.4-3.9-.5-7.9-2.8-11.3z"/>
  <path fill="url(#e)" d="M76.7 36.9c-.7-3.9-2.6-7.5-5.3-10.2-1.2-1.2-2.5-2.2-3.9-3-1.4-.8-2.9-1.4-4.5-1.8-1.6-.4-3.2-.6-4.8-.6-1.6 0-3.2.2-4.8.6-1.6.4-3.1 1-4.5 1.8-1.4.8-2.7 1.8-3.9 3-2.7 2.7-4.6 6.3-5.3 10.2-.7 3.9-.2 7.9 1.4 11.4 1.6 3.5 4.3 6.4 7.7 8.2 3.4 1.8 7.3 2.4 11.1 1.7 3.8-.7 7.3-2.7 9.9-5.5 2.6-2.9 4.3-6.6 4.7-10.5.4-3.9-.5-7.9-2.8-11.3z"/>
  <path fill="url(#f)" d="M41.3 83c22.6 0 40.9-18.3 40.9-40.9S63.9 1.3 41.3 1.3.4 19.6.4 42.2s18.3 40.8 40.9 40.8z"/>
  <path fill="url(#g)" d="M41.3 83c22.6 0 40.9-18.3 40.9-40.9S63.9 1.3 41.3 1.3.4 19.6.4 42.2s18.3 40.8 40.9 40.8z"/>
  <path fill="url(#h)" d="M69.4 42.2c0-1.6-.2-3.2-.5-4.7-.3-1.5-.8-3-1.5-4.4-.7-1.4-1.5-2.7-2.5-3.9-1-1.2-2.1-2.3-3.3-3.3-1.2-1-2.5-1.8-3.9-2.5-1.4-.7-2.9-1.2-4.4-1.5-1.5-.3-3.1-.5-4.7-.5-1.6 0-3.2.2-4.7.5-1.5.3-3 .8-4.4 1.5-1.4.7-2.7 1.5-3.9 2.5-1.2 1-2.3 2.1-3.3 3.3-1 1.2-1.8 2.5-2.5 3.9-.7 1.4-1.2 2.9-1.5 4.4-.3 1.5-.5 3.1-.5 4.7 0 1.6.2 3.2.5 4.7.3 1.5.8 3 1.5 4.4.7 1.4 1.5 2.7 2.5 3.9 1 1.2 2.1 2.3 3.3 3.3 1.2 1 2.5 1.8 3.9 2.5 1.4.7 2.9 1.2 4.4 1.5 1.5.3 3.1.5 4.7.5 1.6 0 3.2-.2 4.7-.5 1.5-.3 3-.8 4.4-1.5 1.4-.7 2.7-1.5 3.9-2.5 1.2-1 2.3-2.1 3.3-3.3 1-1.2 1.8-2.5 2.5-3.9.7-1.4 1.2-2.9 1.5-4.4.3-1.5.5-3.1.5-4.7z"/>
  <path fill="#fff" d="M57.1 30.9c.3 0 .5-.1.7-.3.2-.2.3-.4.3-.7 0-.3-.1-.5-.3-.7-.2-.2-.4-.3-.7-.3-.3 0-.5.1-.7.3-.2.2-.3.4-.3.7 0 .3.1.5.3.7.2.2.5.3.7.3zm-32.2 14c-.3 0-.5.1-.7.3-.2.2-.3.4-.3.7 0 .3.1.5.3.7.2.2.4.3.7.3.3 0 .5-.1.7-.3.2-.2.3-.4.3-.7 0-.3-.1-.5-.3-.7-.2-.2-.5-.3-.7-.3zm3.6-6.5c-.3 0-.5.1-.7.3-.2.2-.3.4-.3.7 0 .3.1.5.3.7.2.2.4.3.7.3.3 0 .5-.1.7-.3.2-.2.3-.4.3-.7 0-.3-.1-.5-.3-.7-.2-.2-.5-.3-.7-.3zm-5.4 3.6c-.2 0-.4.1-.5.2-.1.1-.2.3-.2.5s.1.4.2.5c.1.1.3.2.5.2s.4-.1.5-.2c.1-.1.2-.3.2-.5s-.1-.4-.2-.5c-.1-.1-.3-.2-.5-.2zm3.6-7.2c-.2 0-.4.1-.5.2-.1.1-.2.3-.2.5s.1.4.2.5c.1.1.3.2.5.2s.4-.1.5-.2c.1-.1.2-.3.2-.5s-.1-.4-.2-.5c-.1-.1-.3-.2-.5-.2zm-7.2 3.6c-.1 0-.2 0-.4.1-.1.1-.1.2-.1.4 0 .1 0 .2.1.4.1.1.2.1.4.1.1 0 .2 0 .4-.1.1-.1.1-.2.1-.4 0-.1 0-.2-.1-.4-.2-.1-.3-.1-.4-.1zm3.6-7.2c-.1 0-.2 0-.4.1-.1.1-.1.2-.1.4 0 .1 0 .2.1.4.1.1.2.1.4.1.1 0 .2 0 .4-.1.1-.1.1-.2.1-.4 0-.1 0-.2-.1-.4-.2-.1-.3-.1-.4-.1zm-7.2 3.6c-.1 0-.1 0-.2.1-.1.1-.1.1-.1.2s0 .1.1.2c.1.1.1.1.2.1s.1 0 .2-.1c.1-.1.1-.1.1-.2s0-.1-.1-.2c-.1-.1-.1-.1-.2-.1zm48.8 3.6c-.3 0-.5.1-.7.3-.2.2-.3.4-.3.7 0 .3.1.5.3.7.2.2.4.3.7.3.3 0 .5-.1.7-.3.2-.2.3-.4.3-.7 0-.3-.1-.5-.3-.7-.2-.2-.5-.3-.7-.3zm-3.6 7.2c-.3 0-.5.1-.7.3-.2.2-.3.4-.3.7 0 .3.1.5.3.7.2.2.4.3.7.3.3 0 .5-.1.7-.3.2-.2.3-.4.3-.7 0-.3-.1-.5-.3-.7-.2-.2-.5-.3-.7-.3zm5.4-3.6c-.2 0-.4.1-.5.2-.1.1-.2.3-.2.5s.1.4.2.5c.1.1.3.2.5.2s.4-.1.5-.2c.1-.1.2-.3.2-.5s-.1-.4-.2-.5c-.1-.1-.3-.2-.5-.2zm-3.6 7.2c-.2 0-.4.1-.5.2-.1.1-.2.3-.2.5s.1.4.2.5c.1.1.3.2.5.2s.4-.1.5-.2c.1-.1.2-.3.2-.5s-.1-.4-.2-.5c-.1-.1-.3-.2-.5-.2zm7.2-3.6c-.1 0-.2 0-.4.1-.1.1-.1.2-.1.4 0 .1 0 .2.1.4.1.1.2.1.4.1.1 0 .2 0 .4-.1.1-.1.1-.2.1-.4 0-.1 0-.2-.1-.4-.2-.1-.3-.1-.4-.1zm-3.6 7.2c-.1 0-.2 0-.4.1-.1.1-.1.2-.1.4 0 .1 0 .2.1.4.1.1.2.1.4.1.1 0 .2 0 .4-.1.1-.1.1-.2.1-.4 0-.1 0-.2-.1-.4-.2-.1-.3-.1-.4-.1zm7.2-3.6c-.1 0-.1 0-.2.1-.1.1-.1.1-.1.2s0 .1.1.2c.1.1.1.1.2.1s.1 0 .2-.1c.1-.1.1-.1.1-.2s0-.1-.1-.2c-.1-.1-.1-.1-.2-.1zM41.3 22.5c-.4 0-.7.1-1 .4-.3.3-.4.6-.4 1v36.6c0 .4.1.7.4 1 .3.3.6.4 1 .4.4 0 .7-.1 1-.4.3-.3.4-.6.4-1V23.9c0-.4-.1-.7-.4-1-.3-.3-.6-.4-1-.4z"/>
  <path fill="#fff" d="M41.3 26.1c-8.9 0-16.1 7.2-16.1 16.1 0 8.9 7.2 16.1 16.1 16.1 8.9 0 16.1-7.2 16.1-16.1 0-8.9-7.2-16.1-16.1-16.1zm0 28.2c-6.7 0-12.1-5.4-12.1-12.1s5.4-12.1 12.1-12.1 12.1 5.4 12.1 12.1-5.4 12.1-12.1 12.1z"/>
  <path fill="#fff" d="M41.3 33.3c-4.9 0-8.9 4-8.9 8.9 0 4.9 4 8.9 8.9 8.9 4.9 0 8.9-4 8.9-8.9 0-4.9-4-8.9-8.9-8.9zm0 13.8c-2.7 0-4.9-2.2-4.9-4.9s2.2-4.9 4.9-4.9 4.9 2.2 4.9 4.9-2.2 4.9-4.9 4.9z"/>
</svg>